<svg id="my-svg" width="100%" xmlns="http://www.w3.org/2000/svg" xmlns:xlink="http://www.w3.org/1999/xlink" class="flowchart" style="max-width: 2247.86px; background-color: transparent;" viewBox="0 -35 2247.859375 743" role="graphics-document document" aria-roledescription="flowchart-v2"><style>#my-svg{font-family:"trebuchet ms",verdana,arial,sans-serif;font-size:16px;fill:#ccc;}@keyframes edge-animation-frame{from{stroke-dashoffset:0;}}@keyframes dash{to{stroke-dashoffset:0;}}#my-svg .edge-animation-slow{stroke-dasharray:9,5!important;stroke-dashoffset:900;animation:dash 50s linear infinite;stroke-linecap:round;}#my-svg .edge-animation-fast{stroke-dasharray:9,5!important;stroke-dashoffset:900;animation:dash 20s linear infinite;stroke-linecap:round;}#my-svg .error-icon{fill:#a44141;}#my-svg .error-text{fill:#ddd;stroke:#ddd;}#my-svg .edge-thickness-normal{stroke-width:1px;}#my-svg .edge-thickness-thick{stroke-width:3.5px;}#my-svg .edge-pattern-solid{stroke-dasharray:0;}#my-svg .edge-thickness-invisible{stroke-width:0;fill:none;}#my-svg .edge-pattern-dashed{stroke-dasharray:3;}#my-svg .edge-pattern-dotted{stroke-dasharray:2;}#my-svg .marker{fill:lightgrey;stroke:lightgrey;}#my-svg .marker.cross{stroke:lightgrey;}#my-svg svg{font-family:"trebuchet ms",verdana,arial,sans-serif;font-size:16px;}#my-svg p{margin:0;}#my-svg .label{font-family:"trebuchet ms",verdana,arial,sans-serif;color:#ccc;}#my-svg .cluster-label text{fill:#F9FFFE;}#my-svg .cluster-label span{color:#F9FFFE;}#my-svg .cluster-label span p{background-color:transparent;}#my-svg .label text,#my-svg span{fill:#ccc;color:#ccc;}#my-svg .node rect,#my-svg .node circle,#my-svg .node ellipse,#my-svg .node polygon,#my-svg .node path{fill:#1f2020;stroke:#ccc;stroke-width:1px;}#my-svg .rough-node .label text,#my-svg .node .label text,#my-svg .image-shape .label,#my-svg .icon-shape .label{text-anchor:middle;}#my-svg .node .katex path{fill:#000;stroke:#000;stroke-width:1px;}#my-svg .rough-node .label,#my-svg .node .label,#my-svg .image-shape .label,#my-svg .icon-shape .label{text-align:center;}#my-svg .node.clickable{cursor:pointer;}#my-svg .root .anchor path{fill:lightgrey!important;stroke-width:0;stroke:lightgrey;}#my-svg .arrowheadPath{fill:lightgrey;}#my-svg .edgePath .path{stroke:lightgrey;stroke-width:2.0px;}#my-svg .flowchart-link{stroke:lightgrey;fill:none;}#my-svg .edgeLabel{background-color:hsl(0, 0%, 34.4117647059%);text-align:center;}#my-svg .edgeLabel p{background-color:hsl(0, 0%, 34.4117647059%);}#my-svg .edgeLabel rect{opacity:0.5;background-color:hsl(0, 0%, 34.4117647059%);fill:hsl(0, 0%, 34.4117647059%);}#my-svg .labelBkg{background-color:rgba(87.75, 87.75, 87.75, 0.5);}#my-svg .cluster rect{fill:hsl(180, 1.5873015873%, 28.3529411765%);stroke:rgba(255, 255, 255, 0.25);stroke-width:1px;}#my-svg .cluster text{fill:#F9FFFE;}#my-svg .cluster span{color:#F9FFFE;}#my-svg div.mermaidTooltip{position:absolute;text-align:center;max-width:200px;padding:2px;font-family:"trebuchet ms",verdana,arial,sans-serif;font-size:12px;background:hsl(20, 1.5873015873%, 12.3529411765%);border:1px solid rgba(255, 255, 255, 0.25);border-radius:2px;pointer-events:none;z-index:100;}#my-svg .flowchartTitleText{text-anchor:middle;font-size:18px;fill:#ccc;}#my-svg rect.text{fill:none;stroke-width:0;}#my-svg .icon-shape,#my-svg .image-shape{background-color:hsl(0, 0%, 34.4117647059%);text-align:center;}#my-svg .icon-shape p,#my-svg .image-shape p{background-color:hsl(0, 0%, 34.4117647059%);padding:2px;}#my-svg .icon-shape rect,#my-svg .image-shape rect{opacity:0.5;background-color:hsl(0, 0%, 34.4117647059%);fill:hsl(0, 0%, 34.4117647059%);}#my-svg .label-icon{display:inline-block;height:1em;overflow:visible;vertical-align:-0.125em;}#my-svg .node .label-icon path{fill:currentColor;stroke:revert;stroke-width:revert;}#my-svg :root{--mermaid-font-family:"trebuchet ms",verdana,arial,sans-serif;}</style><g><marker id="my-svg_flowchart-v2-pointEnd" class="marker flowchart-v2" viewBox="0 0 10 10" refX="5" refY="5" markerUnits="userSpaceOnUse" markerWidth="8" markerHeight="8" orient="auto"><path d="M 0 0 L 10 5 L 0 10 z" class="arrowMarkerPath" style="stroke-width: 1; stroke-dasharray: 1, 0;"/></marker><marker id="my-svg_flowchart-v2-pointStart" class="marker flowchart-v2" viewBox="0 0 10 10" refX="4.5" refY="5" markerUnits="userSpaceOnUse" markerWidth="8" markerHeight="8" orient="auto"><path d="M 0 5 L 10 10 L 10 0 z" class="arrowMarkerPath" style="stroke-width: 1; stroke-dasharray: 1, 0;"/></marker><marker id="my-svg_flowchart-v2-circleEnd" class="marker flowchart-v2" viewBox="0 0 10 10" refX="11" refY="5" markerUnits="userSpaceOnUse" markerWidth="11" markerHeight="11" orient="auto"><circle cx="5" cy="5" r="5" class="arrowMarkerPath" style="stroke-width: 1; stroke-dasharray: 1, 0;"/></marker><marker id="my-svg_flowchart-v2-circleStart" class="marker flowchart-v2" viewBox="0 0 10 10" refX="-1" refY="5" markerUnits="userSpaceOnUse" markerWidth="11" markerHeight="11" orient="auto"><circle cx="5" cy="5" r="5" class="arrowMarkerPath" style="stroke-width: 1; stroke-dasharray: 1, 0;"/></marker><marker id="my-svg_flowchart-v2-crossEnd" class="marker cross flowchart-v2" viewBox="0 0 11 11" refX="12" refY="5.2" markerUnits="userSpaceOnUse" markerWidth="11" markerHeight="11" orient="auto"><path d="M 1,1 l 9,9 M 10,1 l -9,9" class="arrowMarkerPath" style="stroke-width: 2; stroke-dasharray: 1, 0;"/></marker><marker id="my-svg_flowchart-v2-crossStart" class="marker cross flowchart-v2" viewBox="0 0 11 11" refX="-1" refY="5.2" markerUnits="userSpaceOnUse" markerWidth="11" markerHeight="11" orient="auto"><path d="M 1,1 l 9,9 M 10,1 l -9,9" class="arrowMarkerPath" style="stroke-width: 2; stroke-dasharray: 1, 0;"/></marker><g class="root"><g class="clusters"/><g class="edgePaths"><path d="M107.329,242L123.206,271.5C139.084,301,170.839,360,193.779,389.5C216.719,419,230.844,419,237.906,419L244.969,419" id="L_Core_Dataset_0" class="edge-thickness-normal edge-pattern-solid edge-thickness-normal edge-pattern-solid flowchart-link" style=";" data-edge="true" data-et="edge" data-id="L_Core_Dataset_0" data-points="W3sieCI6MTA3LjMyODgxNDMzODIzNTI5LCJ5IjoyNDJ9LHsieCI6MjAyLjU5Mzc1LCJ5Ijo0MTl9LHsieCI6MjQ4Ljk2ODc1LCJ5Ijo0MTl9XQ==" marker-end="url(#my-svg_flowchart-v2-pointEnd)"/><path d="M117.92,188L132.032,172.833C146.145,157.667,174.369,127.333,208.574,112.167C242.779,97,282.964,97,335.819,97C388.674,97,454.201,97,520.116,97C586.031,97,652.336,97,722.225,97C792.115,97,865.589,97,938.721,97C1011.854,97,1084.646,97,1154.483,97C1224.32,97,1291.203,97,1360.243,97C1429.284,97,1500.482,97,1566.564,97C1632.646,97,1693.612,97,1744.982,148.216C1796.352,199.432,1838.126,301.864,1859.013,353.08L1879.9,404.296" id="L_Core_Node_0" class="edge-thickness-normal edge-pattern-solid edge-thickness-normal edge-pattern-solid flowchart-link" style=";" data-edge="true" data-et="edge" data-id="L_Core_Node_0" data-points="W3sieCI6MTE3LjkxOTg4ODc3MTE4NjQ0LCJ5IjoxODh9LHsieCI6MjAyLjU5Mzc1LCJ5Ijo5N30seyJ4IjozMjMuMTQ4NDM3NSwieSI6OTd9LHsieCI6NTE5LjcyNjU2MjUsInkiOjk3fSx7IngiOjcxOC42NDA2MjUsInkiOjk3fSx7IngiOjkzOS4wNjI1LCJ5Ijo5N30seyJ4IjoxMTU3LjQzNzUsInkiOjk3fSx7IngiOjEzNTguMDg1OTM3NSwieSI6OTd9LHsieCI6MTU3MS42Nzk2ODc1LCJ5Ijo5N30seyJ4IjoxNzU0LjU3ODEyNSwieSI6OTd9LHsieCI6MTg4MS40MTA2ODc4Njk4MjI2LCJ5Ijo0MDh9XQ==" marker-end="url(#my-svg_flowchart-v2-pointEnd)"/><path d="M105.047,188L121.305,152.167C137.563,116.333,170.078,44.667,206.428,8.833C242.779,-27,282.964,-27,335.819,-27C388.674,-27,454.201,-27,520.116,-27C586.031,-27,652.336,-27,722.225,-27C792.115,-27,865.589,-27,938.721,-27C1011.854,-27,1084.646,-27,1154.483,-27C1224.32,-27,1291.203,-27,1360.243,-27C1429.284,-27,1500.482,-27,1566.564,-27C1632.646,-27,1693.612,-27,1747.069,-27C1800.526,-27,1846.474,-27,1892.51,-27C1938.547,-27,1984.672,-27,2028.425,8.59C2072.178,44.181,2113.56,115.361,2134.251,150.952L2154.941,186.542" id="L_Core_Group_0" class="edge-thickness-normal edge-pattern-solid edge-thickness-normal edge-pattern-solid flowchart-link" style=";" data-edge="true" data-et="edge" data-id="L_Core_Group_0" data-points="W3sieCI6MTA1LjA0NjkzOTU2NjExNTcsInkiOjE4OH0seyJ4IjoyMDIuNTkzNzUsInkiOi0yN30seyJ4IjozMjMuMTQ4NDM3NSwieSI6LTI3fSx7IngiOjUxOS43MjY1NjI1LCJ5IjotMjd9LHsieCI6NzE4LjY0MDYyNSwieSI6LTI3fSx7IngiOjkzOS4wNjI1LCJ5IjotMjd9LHsieCI6MTE1Ny40Mzc1LCJ5IjotMjd9LHsieCI6MTM1OC4wODU5Mzc1LCJ5IjotMjd9LHsieCI6MTU3MS42Nzk2ODc1LCJ5IjotMjd9LHsieCI6MTc1NC41NzgxMjUsInkiOi0yN30seyJ4IjoxODkyLjQyMTg3NSwieSI6LTI3fSx7IngiOjIwMzAuNzk2ODc1LCJ5IjotMjd9LHsieCI6MjE1Ni45NTE3NDgyMDY5NjczLCJ5IjoxOTB9XQ==" marker-end="url(#my-svg_flowchart-v2-pointEnd)"/><path d="M103.942,242L120.384,281.833C136.826,321.667,169.71,401.333,206.244,441.167C242.779,481,282.964,481,335.819,481C388.674,481,454.201,481,520.116,481C586.031,481,652.336,481,722.225,481C792.115,481,865.589,481,926.026,486.209C986.463,491.419,1033.864,501.838,1057.565,507.047L1081.265,512.257" id="L_Core_Tutorial_0" class="edge-thickness-normal edge-pattern-solid edge-thickness-normal edge-pattern-solid flowchart-link" style=";" data-edge="true" data-et="edge" data-id="L_Core_Tutorial_0" data-points="W3sieCI6MTAzLjk0MTY3MDU4MjcwNjc2LCJ5IjoyNDJ9LHsieCI6MjAyLjU5Mzc1LCJ5Ijo0ODF9LHsieCI6MzIzLjE0ODQzNzUsInkiOjQ4MX0seyJ4Ijo1MTkuNzI2NTYyNSwieSI6NDgxfSx7IngiOjcxOC42NDA2MjUsInkiOjQ4MX0seyJ4Ijo5MzkuMDYyNSwieSI6NDgxfSx7IngiOjEwODUuMTcxODc1LCJ5Ijo1MTMuMTE1NjI2Nzg4NzgwOH1d" marker-end="url(#my-svg_flowchart-v2-pointEnd)"/><path d="M113.674,242L128.494,261.167C143.314,280.333,172.954,318.667,207.866,337.833C242.779,357,282.964,357,335.819,357C388.674,357,454.201,357,520.116,357C586.031,357,652.336,357,722.225,357C792.115,357,865.589,357,938.721,357C1011.854,357,1084.646,357,1154.483,357C1224.32,357,1291.203,357,1347.295,365.271C1403.386,373.543,1448.686,390.085,1471.336,398.357L1493.986,406.628" id="L_Core_TutorialStop_0" class="edge-thickness-normal edge-pattern-solid edge-thickness-normal edge-pattern-solid flowchart-link" style=";" data-edge="true" data-et="edge" data-id="L_Core_TutorialStop_0" data-points="W3sieCI6MTEzLjY3Mzc0NTU5ODU5MTU1LCJ5IjoyNDJ9LHsieCI6MjAyLjU5Mzc1LCJ5IjozNTd9LHsieCI6MzIzLjE0ODQzNzUsInkiOjM1N30seyJ4Ijo1MTkuNzI2NTYyNSwieSI6MzU3fSx7IngiOjcxOC42NDA2MjUsInkiOjM1N30seyJ4Ijo5MzkuMDYyNSwieSI6MzU3fSx7IngiOjExNTcuNDM3NSwieSI6MzU3fSx7IngiOjEzNTguMDg1OTM3NSwieSI6MzU3fSx7IngiOjE0OTcuNzQzMzg5NDIzMDc3LCJ5Ijo0MDh9XQ==" marker-end="url(#my-svg_flowchart-v2-pointEnd)"/><path d="M101.39,242L118.257,295C135.124,348,168.859,454,205.819,507C242.779,560,282.964,560,335.819,560C388.674,560,454.201,560,509.149,563.011C564.098,566.023,608.47,572.046,630.655,575.057L652.841,578.069" id="L_Core_View_0" class="edge-thickness-normal edge-pattern-solid edge-thickness-normal edge-pattern-solid flowchart-link" style=";" data-edge="true" data-et="edge" data-id="L_Core_View_0" data-points="W3sieCI6MTAxLjM4OTY3MzkxMzA0MzQ4LCJ5IjoyNDJ9LHsieCI6MjAyLjU5Mzc1LCJ5Ijo1NjB9LHsieCI6MzIzLjE0ODQzNzUsInkiOjU2MH0seyJ4Ijo1MTkuNzI2NTYyNSwieSI6NTYwfSx7IngiOjY1Ni44MDQ2ODc1LCJ5Ijo1NzguNjA2NTc0NzYxMzk5OH1d" marker-end="url(#my-svg_flowchart-v2-pointEnd)"/><path d="M99.612,242L116.776,310C133.939,378,168.266,514,205.523,582C242.779,650,282.964,650,335.819,650C388.674,650,454.201,650,520.116,650C586.031,650,652.336,650,722.225,650C792.115,650,865.589,650,938.721,650C1011.854,650,1084.646,650,1154.483,650C1224.32,650,1291.203,650,1342.366,651.328C1393.53,652.655,1428.974,655.31,1446.696,656.638L1464.417,657.965" id="L_Core_EdgeReference_0" class="edge-thickness-normal edge-pattern-solid edge-thickness-normal edge-pattern-solid flowchart-link" style=";" data-edge="true" data-et="edge" data-id="L_Core_EdgeReference_0" data-points="W3sieCI6OTkuNjExODUzNDQ4Mjc1ODcsInkiOjI0Mn0seyJ4IjoyMDIuNTkzNzUsInkiOjY1MH0seyJ4IjozMjMuMTQ4NDM3NSwieSI6NjUwfSx7IngiOjUxOS43MjY1NjI1LCJ5Ijo2NTB9LHsieCI6NzE4LjY0MDYyNSwieSI6NjUwfSx7IngiOjkzOS4wNjI1LCJ5Ijo2NTB9LHsieCI6MTE1Ny40Mzc1LCJ5Ijo2NTB9LHsieCI6MTM1OC4wODU5Mzc1LCJ5Ijo2NTB9LHsieCI6MTQ2OC40MDYyNSwieSI6NjU4LjI2MzkzNTYyNTQ1NzJ9XQ==" marker-end="url(#my-svg_flowchart-v2-pointEnd)"/><path d="M177.594,218.862L181.76,219.051C185.927,219.241,194.26,219.621,218.52,219.81C242.779,220,282.964,220,335.819,220C388.674,220,454.201,220,503.138,221.708C552.075,223.415,584.424,226.83,600.598,228.538L616.772,230.245" id="L_Core_QueryCatalog_0" class="edge-thickness-normal edge-pattern-solid edge-thickness-normal edge-pattern-solid flowchart-link" style=";" data-edge="true" data-et="edge" data-id="L_Core_QueryCatalog_0" data-points="W3sieCI6MTc3LjU5Mzc1LCJ5IjoyMTguODYxNTM0MDgyODIzNH0seyJ4IjoyMDIuNTkzNzUsInkiOjIyMH0seyJ4IjozMjMuMTQ4NDM3NSwieSI6MjIwfSx7IngiOjUxOS43MjY1NjI1LCJ5IjoyMjB9LHsieCI6NjIwLjc1LCJ5IjoyMzAuNjY1MzcwNTY2NzQ5MTV9XQ==" marker-end="url(#my-svg_flowchart-v2-pointEnd)"/><path d="M175.145,188L179.719,186.5C184.294,185,193.444,182,218.111,180.5C242.779,179,282.964,179,335.819,179C388.674,179,454.201,179,520.116,179C586.031,179,652.336,179,722.225,179C792.115,179,865.589,179,922.087,181.805C978.586,184.611,1018.11,190.221,1037.872,193.027L1057.633,195.832" id="L_Core_NamedQuery_0" class="edge-thickness-normal edge-pattern-solid edge-thickness-normal edge-pattern-solid flowchart-link" style=";" data-edge="true" data-et="edge" data-id="L_Core_NamedQuery_0" data-points="W3sieCI6MTc1LjE0NDUzMTI1LCJ5IjoxODh9LHsieCI6MjAyLjU5Mzc1LCJ5IjoxNzl9LHsieCI6MzIzLjE0ODQzNzUsInkiOjE3OX0seyJ4Ijo1MTkuNzI2NTYyNSwieSI6MTc5fSx7IngiOjcxOC42NDA2MjUsInkiOjE3OX0seyJ4Ijo5MzkuMDYyNSwieSI6MTc5fSx7IngiOjEwNjEuNTkzNzUsInkiOjE5Ni4zOTQyNDcyODEwNTMyM31d" marker-end="url(#my-svg_flowchart-v2-pointEnd)"/><path d="M131.297,188L143.18,179.667C155.063,171.333,178.828,154.667,210.803,146.333C242.779,138,282.964,138,335.819,138C388.674,138,454.201,138,520.116,138C586.031,138,652.336,138,722.225,138C792.115,138,865.589,138,938.721,138C1011.854,138,1084.646,138,1154.483,138C1224.32,138,1291.203,138,1341.455,140.833C1391.706,143.666,1425.326,149.333,1442.136,152.166L1458.946,154.999" id="L_Core_QueryParameter_0" class="edge-thickness-normal edge-pattern-solid edge-thickness-normal edge-pattern-solid flowchart-link" style=";" data-edge="true" data-et="edge" data-id="L_Core_QueryParameter_0" data-points="W3sieCI6MTMxLjI5NzA3NzkyMjA3NzkzLCJ5IjoxODh9LHsieCI6MjAyLjU5Mzc1LCJ5IjoxMzh9LHsieCI6MzIzLjE0ODQzNzUsInkiOjEzOH0seyJ4Ijo1MTkuNzI2NTYyNSwieSI6MTM4fSx7IngiOjcxOC42NDA2MjUsInkiOjEzOH0seyJ4Ijo5MzkuMDYyNSwieSI6MTM4fSx7IngiOjExNTcuNDM3NSwieSI6MTM4fSx7IngiOjEzNTguMDg1OTM3NSwieSI6MTM4fSx7IngiOjE0NjIuODkwNjI1LCJ5IjoxNTUuNjY0MjI4MjM3MDE1MzV9XQ==" marker-end="url(#my-svg_flowchart-v2-pointEnd)"/><path d="M109.266,188L124.821,162.5C140.376,137,171.485,86,190.539,60.5C209.594,35,216.594,35,220.094,35L223.594,35" id="L_Core_EdgeRelation_0" class="edge-thickness-normal edge-pattern-solid edge-thickness-normal edge-pattern-solid flowchart-link" style=";" data-edge="true" data-et="edge" data-id="L_Core_EdgeRelation_0" data-points="W3sieCI6MTA5LjI2NjQwNjI1LCJ5IjoxODh9LHsieCI6MjAyLjU5Mzc1LCJ5IjozNX0seyJ4IjoyMjcuNTkzNzUsInkiOjM1fV0=" marker-end="url(#my-svg_flowchart-v2-pointEnd)"/><path d="M371.842,392L396.49,378.333C421.137,364.667,470.432,337.333,528.231,323.667C586.031,310,652.336,310,722.225,310C792.115,310,865.589,310,938.721,310C1011.854,310,1084.646,310,1154.483,310C1224.32,310,1291.203,310,1360.243,310C1429.284,310,1500.482,310,1566.564,310C1632.646,310,1693.612,310,1741.613,325.885C1789.614,341.771,1824.649,373.542,1842.167,389.427L1859.685,405.313" id="L_Dataset_Node_0" class="edge-thickness-normal edge-pattern-solid edge-thickness-normal edge-pattern-solid flowchart-link" style=";" data-edge="true" data-et="edge" data-id="L_Dataset_Node_0" data-points="W3sieCI6MzcxLjg0MjEwMTQ5MDgyNTcsInkiOjM5Mn0seyJ4Ijo1MTkuNzI2NTYyNSwieSI6MzEwfSx7IngiOjcxOC42NDA2MjUsInkiOjMxMH0seyJ4Ijo5MzkuMDYyNSwieSI6MzEwfSx7IngiOjExNTcuNDM3NSwieSI6MzEwfSx7IngiOjEzNTguMDg1OTM3NSwieSI6MzEwfSx7IngiOjE1NzEuNjc5Njg3NSwieSI6MzEwfSx7IngiOjE3NTQuNTc4MTI1LCJ5IjozMTB9LHsieCI6MTg2Mi42NDc2MjUsInkiOjQwOH1d" marker-end="url(#my-svg_flowchart-v2-pointEnd)"/><path d="M379.612,446L402.965,457.167C426.317,468.333,473.022,490.667,529.527,501.833C586.031,513,652.336,513,722.225,513C792.115,513,865.589,513,926.012,514.735C986.436,516.471,1033.809,519.942,1057.496,521.677L1081.183,523.413" id="L_Dataset_Tutorial_0" class="edge-thickness-normal edge-pattern-solid edge-thickness-normal edge-pattern-solid flowchart-link" style=";" data-edge="true" data-et="edge" data-id="L_Dataset_Tutorial_0" data-points="W3sieCI6Mzc5LjYxMjM2NzAyMTI3NjYsInkiOjQ0Nn0seyJ4Ijo1MTkuNzI2NTYyNSwieSI6NTEzfSx7IngiOjcxOC42NDA2MjUsInkiOjUxM30seyJ4Ijo5MzkuMDYyNSwieSI6NTEzfSx7IngiOjEwODUuMTcxODc1LCJ5Ijo1MjMuNzA1MjA4OTI5NTkzNn1d" marker-end="url(#my-svg_flowchart-v2-pointEnd)"/><path d="M351.994,446L379.95,472.167C407.905,498.333,463.816,550.667,513.953,575.049C564.09,599.432,608.454,595.863,630.636,594.079L652.818,592.295" id="L_Dataset_View_0" class="edge-thickness-normal edge-pattern-solid edge-thickness-normal edge-pattern-solid flowchart-link" style=";" data-edge="true" data-et="edge" data-id="L_Dataset_View_0" data-points="W3sieCI6MzUxLjk5NDE0MDYyNSwieSI6NDQ2fSx7IngiOjUxOS43MjY1NjI1LCJ5Ijo2MDN9LHsieCI6NjU2LjgwNDY4NzUsInkiOjU5MS45NzM4ODE2MjI4NzQyfV0=" marker-end="url(#my-svg_flowchart-v2-pointEnd)"/><path d="M355.911,392L383.214,369.5C410.516,347,465.122,302,508.597,278.199C552.072,254.398,584.417,251.796,600.59,250.496L616.763,249.195" id="L_Dataset_QueryCatalog_0" class="edge-thickness-normal edge-pattern-solid edge-thickness-normal edge-pattern-solid flowchart-link" style=";" data-edge="true" data-et="edge" data-id="L_Dataset_QueryCatalog_0" data-points="W3sieCI6MzU1LjkxMTQ1ODMzMzMzMzMsInkiOjM5Mn0seyJ4Ijo1MTkuNzI2NTYyNSwieSI6MjU3fSx7IngiOjYyMC43NSwieSI6MjQ4Ljg3NDAwMzM3NzcxNDkzfV0=" marker-end="url(#my-svg_flowchart-v2-pointEnd)"/><path d="M1956.156,435L1968.596,435C1981.036,435,2005.917,435,2038.707,403.725C2071.497,372.451,2112.198,309.902,2132.548,278.627L2152.898,247.353" id="L_Node_Group_0" class="edge-thickness-normal edge-pattern-solid edge-thickness-normal edge-pattern-solid flowchart-link" style=";" data-edge="true" data-et="edge" data-id="L_Node_Group_0" data-points="W3sieCI6MTk1Ni4xNTYyNSwieSI6NDM1fSx7IngiOjIwMzAuNzk2ODc1LCJ5Ijo0MzV9LHsieCI6MjE1NS4wNzk2NjU5OTc3MDYzLCJ5IjoyNDR9XQ==" marker-end="url(#my-svg_flowchart-v2-pointEnd)"/><path d="M1229.703,529L1251.1,529C1272.497,529,1315.292,529,1361.452,518.102C1407.613,507.204,1457.14,485.407,1481.904,474.509L1506.667,463.611" id="L_Tutorial_TutorialStop_0" class="edge-thickness-normal edge-pattern-solid edge-thickness-normal edge-pattern-solid flowchart-link" style=";" data-edge="true" data-et="edge" data-id="L_Tutorial_TutorialStop_0" data-points="W3sieCI6MTIyOS43MDMxMjUsInkiOjUyOX0seyJ4IjoxMzU4LjA4NTkzNzUsInkiOjUyOX0seyJ4IjoxNTEwLjMyODI5MTIyMzQwNDIsInkiOjQ2Mn1d" marker-end="url(#my-svg_flowchart-v2-pointEnd)"/><path d="M1662.133,435L1677.54,435C1692.948,435,1723.763,435,1750.855,435C1777.948,435,1801.318,435,1813.003,435L1824.688,435" id="L_TutorialStop_Node_0" class="edge-thickness-normal edge-pattern-solid edge-thickness-normal edge-pattern-solid flowchart-link" style=";" data-edge="true" data-et="edge" data-id="L_TutorialStop_Node_0" data-points="W3sieCI6MTY2Mi4xMzI4MTI1LCJ5Ijo0MzV9LHsieCI6MTc1NC41NzgxMjUsInkiOjQzNX0seyJ4IjoxODI4LjY4NzUsInkiOjQzNX1d" marker-end="url(#my-svg_flowchart-v2-pointEnd)"/><path d="M780.477,613.651L806.908,625.042C833.339,636.434,886.201,659.217,949.027,670.608C1011.854,682,1084.646,682,1154.483,682C1224.32,682,1291.203,682,1342.366,680.672C1393.53,679.345,1428.974,676.69,1446.696,675.362L1464.417,674.035" id="L_View_EdgeReference_0" class="edge-thickness-normal edge-pattern-solid edge-thickness-normal edge-pattern-solid flowchart-link" style=";" data-edge="true" data-et="edge" data-id="L_View_EdgeReference_0" data-points="W3sieCI6NzgwLjQ3NjU2MjUsInkiOjYxMy42NTA3NzYyMTAzOTJ9LHsieCI6OTM5LjA2MjUsInkiOjY4Mn0seyJ4IjoxMTU3LjQzNzUsInkiOjY4Mn0seyJ4IjoxMzU4LjA4NTkzNzUsInkiOjY4Mn0seyJ4IjoxNDY4LjQwNjI1LCJ5Ijo2NzMuNzM2MDY0Mzc0NTQyOH1d" marker-end="url(#my-svg_flowchart-v2-pointEnd)"/><path d="M780.477,587L806.908,587C833.339,587,886.201,587,936.339,580.703C986.477,574.407,1033.891,561.814,1057.599,555.517L1081.306,549.22" id="L_View_Tutorial_0" class="edge-thickness-normal edge-pattern-solid edge-thickness-normal edge-pattern-solid flowchart-link" style=";" data-edge="true" data-et="edge" data-id="L_View_Tutorial_0" data-points="W3sieCI6NzgwLjQ3NjU2MjUsInkiOjU4N30seyJ4Ijo5MzkuMDYyNSwieSI6NTg3fSx7IngiOjEwODUuMTcxODc1LCJ5Ijo1NDguMTkzNjE3NjMwMjIzMn1d" marker-end="url(#my-svg_flowchart-v2-pointEnd)"/><path d="M1674.953,649.061L1688.224,646.884C1701.495,644.707,1728.036,640.354,1760.818,609.727C1793.6,579.1,1832.622,522.199,1852.132,493.749L1871.643,465.299" id="L_EdgeReference_Node_0" class="edge-thickness-normal edge-pattern-solid edge-thickness-normal edge-pattern-solid flowchart-link" style=";" data-edge="true" data-et="edge" data-id="L_EdgeReference_Node_0" data-points="W3sieCI6MTY3NC45NTMxMjUsInkiOjY0OS4wNjA1MjcxMDI2NDQxfSx7IngiOjE3NTQuNTc4MTI1LCJ5Ijo2MzZ9LHsieCI6MTg3My45MDU1NTAzNzMxMzQyLCJ5Ijo0NjJ9XQ==" marker-end="url(#my-svg_flowchart-v2-pointEnd)"/><path d="M1674.953,678.422L1688.224,680.019C1701.495,681.615,1728.036,684.807,1761.511,649.322C1794.985,613.837,1835.391,539.675,1855.594,502.594L1875.798,465.512" id="L_EdgeReference_Node_2" class="edge-thickness-normal edge-pattern-solid edge-thickness-normal edge-pattern-solid flowchart-link" style=";" data-edge="true" data-et="edge" data-id="L_EdgeReference_Node_2" data-points="W3sieCI6MTY3NC45NTMxMjUsInkiOjY3OC40MjIyODAxMjQ3Mjc2fSx7IngiOjE3NTQuNTc4MTI1LCJ5Ijo2ODh9LHsieCI6MTg3Ny43MTEyNzcxNzM5MTMsInkiOjQ2Mn1d" marker-end="url(#my-svg_flowchart-v2-pointEnd)"/><path d="M816.531,241L836.953,241C857.375,241,898.219,241,938.402,238.195C978.586,235.389,1018.11,229.779,1037.872,226.973L1057.633,224.168" id="L_QueryCatalog_NamedQuery_0" class="edge-thickness-normal edge-pattern-solid edge-thickness-normal edge-pattern-solid flowchart-link" style=";" data-edge="true" data-et="edge" data-id="L_QueryCatalog_NamedQuery_0" data-points="W3sieCI6ODE2LjUzMTI1LCJ5IjoyNDF9LHsieCI6OTM5LjA2MjUsInkiOjI0MX0seyJ4IjoxMDYxLjU5Mzc1LCJ5IjoyMjMuNjA1NzUyNzE4OTQ2Nzd9XQ==" marker-end="url(#my-svg_flowchart-v2-pointEnd)"/><path d="M1253.281,210L1270.749,210C1288.216,210,1323.151,210,1357.429,207.167C1391.706,204.334,1425.326,198.667,1442.136,195.834L1458.946,193.001" id="L_NamedQuery_QueryParameter_0" class="edge-thickness-normal edge-pattern-solid edge-thickness-normal edge-pattern-solid flowchart-link" style=";" data-edge="true" data-et="edge" data-id="L_NamedQuery_QueryParameter_0" data-points="W3sieCI6MTI1My4yODEyNSwieSI6MjEwfSx7IngiOjEzNTguMDg1OTM3NSwieSI6MjEwfSx7IngiOjE0NjIuODkwNjI1LCJ5IjoxOTIuMzM1NzcxNzYyOTg0NjV9XQ==" marker-end="url(#my-svg_flowchart-v2-pointEnd)"/></g><g class="edgeLabels"><g class="edgeLabel"><g class="label" data-id="L_Core_Dataset_0" transform="translate(0, 0)"><foreignObject width="0" height="0"><div xmlns="http://www.w3.org/1999/xhtml" class="labelBkg" style="display: table-cell; white-space: nowrap; line-height: 1.5; max-width: 200px; text-align: center;"><span class="edgeLabel"></span></div></foreignObject></g></g><g class="edgeLabel"><g class="label" data-id="L_Core_Node_0" transform="translate(0, 0)"><foreignObject width="0" height="0"><div xmlns="http://www.w3.org/1999/xhtml" class="labelBkg" style="display: table-cell; white-space: nowrap; line-height: 1.5; max-width: 200px; text-align: center;"><span class="edgeLabel"></span></div></foreignObject></g></g><g class="edgeLabel"><g class="label" data-id="L_Core_Group_0" transform="translate(0, 0)"><foreignObject width="0" height="0"><div xmlns="http://www.w3.org/1999/xhtml" class="labelBkg" style="display: table-cell; white-space: nowrap; line-height: 1.5; max-width: 200px; text-align: center;"><span class="edgeLabel"></span></div></foreignObject></g></g><g class="edgeLabel"><g class="label" data-id="L_Core_Tutorial_0" transform="translate(0, 0)"><foreignObject width="0" height="0"><div xmlns="http://www.w3.org/1999/xhtml" class="labelBkg" style="display: table-cell; white-space: nowrap; line-height: 1.5; max-width: 200px; text-align: center;"><span class="edgeLabel"></span></div></foreignObject></g></g><g class="edgeLabel"><g class="label" data-id="L_Core_TutorialStop_0" transform="translate(0, 0)"><foreignObject width="0" height="0"><div xmlns="http://www.w3.org/1999/xhtml" class="labelBkg" style="display: table-cell; white-space: nowrap; line-height: 1.5; max-width: 200px; text-align: center;"><span class="edgeLabel"></span></div></foreignObject></g></g><g class="edgeLabel"><g class="label" data-id="L_Core_View_0" transform="translate(0, 0)"><foreignObject width="0" height="0"><div xmlns="http://www.w3.org/1999/xhtml" class="labelBkg" style="display: table-cell; white-space: nowrap; line-height: 1.5; max-width: 200px; text-align: center;"><span class="edgeLabel"></span></div></foreignObject></g></g><g class="edgeLabel"><g class="label" data-id="L_Core_EdgeReference_0" transform="translate(0, 0)"><foreignObject width="0" height="0"><div xmlns="http://www.w3.org/1999/xhtml" class="labelBkg" style="display: table-cell; white-space: nowrap; line-height: 1.5; max-width: 200px; text-align: center;"><span class="edgeLabel"></span></div></foreignObject></g></g><g class="edgeLabel"><g class="label" data-id="L_Core_QueryCatalog_0" transform="translate(0, 0)"><foreignObject width="0" height="0"><div xmlns="http://www.w3.org/1999/xhtml" class="labelBkg" style="display: table-cell; white-space: nowrap; line-height: 1.5; max-width: 200px; text-align: center;"><span class="edgeLabel"></span></div></foreignObject></g></g><g class="edgeLabel"><g class="label" data-id="L_Core_NamedQuery_0" transform="translate(0, 0)"><foreignObject width="0" height="0"><div xmlns="http://www.w3.org/1999/xhtml" class="labelBkg" style="display: table-cell; white-space: nowrap; line-height: 1.5; max-width: 200px; text-align: center;"><span class="edgeLabel"></span></div></foreignObject></g></g><g class="edgeLabel"><g class="label" data-id="L_Core_QueryParameter_0" transform="translate(0, 0)"><foreignObject width="0" height="0"><div xmlns="http://www.w3.org/1999/xhtml" class="labelBkg" style="display: table-cell; white-space: nowrap; line-height: 1.5; max-width: 200px; text-align: center;"><span class="edgeLabel"></span></div></foreignObject></g></g><g class="edgeLabel"><g class="label" data-id="L_Core_EdgeRelation_0" transform="translate(0, 0)"><foreignObject width="0" height="0"><div xmlns="http://www.w3.org/1999/xhtml" class="labelBkg" style="display: table-cell; white-space: nowrap; line-height: 1.5; max-width: 200px; text-align: center;"><span class="edgeLabel"></span></div></foreignObject></g></g><g class="edgeLabel" transform="translate(1157.4375, 310)"><g class="label" data-id="L_Dataset_Node_0" transform="translate(-39.1875, -12)"><foreignObject width="78.375" height="24"><div xmlns="http://www.w3.org/1999/xhtml" class="labelBkg" style="display: table-cell; white-space: nowrap; line-height: 1.5; max-width: 200px; text-align: center;"><span class="edgeLabel"><p>has many</p></span></div></foreignObject></g></g><g class="edgeLabel" transform="translate(718.640625, 513)"><g class="label" data-id="L_Dataset_Tutorial_0" transform="translate(-49.7265625, -12)"><foreignObject width="99.453125" height="24"><div xmlns="http://www.w3.org/1999/xhtml" class="labelBkg" style="display: table-cell; white-space: nowrap; line-height: 1.5; max-width: 200px; text-align: center;"><span class="edgeLabel"><p>has tutorials</p></span></div></foreignObject></g></g><g class="edgeLabel" transform="translate(486.06083, 571.48839)"><g class="label" data-id="L_Dataset_View_0" transform="translate(-39.2734375, -12)"><foreignObject width="78.546875" height="24"><div xmlns="http://www.w3.org/1999/xhtml" class="labelBkg" style="display: table-cell; white-space: nowrap; line-height: 1.5; max-width: 200px; text-align: center;"><span class="edgeLabel"><p>has views</p></span></div></foreignObject></g></g><g class="edgeLabel" transform="translate(476.92552, 292.27233)"><g class="label" data-id="L_Dataset_QueryCatalog_0" transform="translate(-76.0234375, -12)"><foreignObject width="152.046875" height="24"><div xmlns="http://www.w3.org/1999/xhtml" class="labelBkg" style="display: table-cell; white-space: nowrap; line-height: 1.5; max-width: 200px; text-align: center;"><span class="edgeLabel"><p>has query catalogs</p></span></div></foreignObject></g></g><g class="edgeLabel" transform="translate(2030.796875, 435)"><g class="label" data-id="L_Node_Group_0" transform="translate(-49.640625, -12)"><foreignObject width="99.28125" height="24"><div xmlns="http://www.w3.org/1999/xhtml" class="labelBkg" style="display: table-cell; white-space: nowrap; line-height: 1.5; max-width: 200px; text-align: center;"><span class="edgeLabel"><p>belongs to 1</p></span></div></foreignObject></g></g><g class="edgeLabel" transform="translate(1358.0859375, 529)"><g class="label" data-id="L_Tutorial_TutorialStop_0" transform="translate(-54.8515625, -12)"><foreignObject width="109.703125" height="24"><div xmlns="http://www.w3.org/1999/xhtml" class="labelBkg" style="display: table-cell; white-space: nowrap; line-height: 1.5; max-width: 200px; text-align: center;"><span class="edgeLabel"><p>has stops 0..*</p></span></div></foreignObject></g></g><g class="edgeLabel" transform="translate(1754.578125, 435)"><g class="label" data-id="L_TutorialStop_Node_0" transform="translate(-42.9453125, -12)"><foreignObject width="85.890625" height="24"><div xmlns="http://www.w3.org/1999/xhtml" class="labelBkg" style="display: table-cell; white-space: nowrap; line-height: 1.5; max-width: 200px; text-align: center;"><span class="edgeLabel"><p>focuses on</p></span></div></foreignObject></g></g><g class="edgeLabel" transform="translate(1157.4375, 682)"><g class="label" data-id="L_View_EdgeReference_0" transform="translate(-70.96875, -12)"><foreignObject width="141.9375" height="24"><div xmlns="http://www.w3.org/1999/xhtml" class="labelBkg" style="display: table-cell; white-space: nowrap; line-height: 1.5; max-width: 200px; text-align: center;"><span class="edgeLabel"><p>has edge refs 0..*</p></span></div></foreignObject></g></g><g class="edgeLabel" transform="translate(939.0625, 587)"><g class="label" data-id="L_View_Tutorial_0" transform="translate(-97.53125, -12)"><foreignObject width="195.0625" height="24"><div xmlns="http://www.w3.org/1999/xhtml" class="labelBkg" style="display: table-cell; white-space: nowrap; line-height: 1.5; max-width: 200px; text-align: center;"><span class="edgeLabel"><p>has scoped tutorials 0..*</p></span></div></foreignObject></g></g><g class="edgeLabel" transform="translate(1791.42416, 582.27211)"><g class="label" data-id="L_EdgeReference_Node_0" transform="translate(-49.109375, -12)"><foreignObject width="98.21875" height="24"><div xmlns="http://www.w3.org/1999/xhtml" class="labelBkg" style="display: table-cell; white-space: nowrap; line-height: 1.5; max-width: 200px; text-align: center;"><span class="edgeLabel"><p>edge source</p></span></div></foreignObject></g></g><g class="edgeLabel" transform="translate(1754.578125, 688)"><g class="label" data-id="L_EdgeReference_Node_2" transform="translate(-46.8671875, -12)"><foreignObject width="93.734375" height="24"><div xmlns="http://www.w3.org/1999/xhtml" class="labelBkg" style="display: table-cell; white-space: nowrap; line-height: 1.5; max-width: 200px; text-align: center;"><span class="edgeLabel"><p>edge target</p></span></div></foreignObject></g></g><g class="edgeLabel" transform="translate(939.0625, 241)"><g class="label" data-id="L_QueryCatalog_NamedQuery_0" transform="translate(-93.3828125, -12)"><foreignObject width="186.765625" height="24"><div xmlns="http://www.w3.org/1999/xhtml" class="labelBkg" style="display: table-cell; white-space: nowrap; line-height: 1.5; max-width: 200px; text-align: center;"><span class="edgeLabel"><p>has named queries 0..*</p></span></div></foreignObject></g></g><g class="edgeLabel" transform="translate(1358.0859375, 210)"><g class="label" data-id="L_NamedQuery_QueryParameter_0" transform="translate(-79.8046875, -12)"><foreignObject width="159.609375" height="24"><div xmlns="http://www.w3.org/1999/xhtml" class="labelBkg" style="display: table-cell; white-space: nowrap; line-height: 1.5; max-width: 200px; text-align: center;"><span class="edgeLabel"><p>has parameters 0..*</p></span></div></foreignObject></g></g></g><g class="nodes"><g class="node default" id="flowchart-Core-0" transform="translate(92.796875, 215)"><rect class="basic label-container" style="" x="-84.796875" y="-27" width="169.59375" height="54"/><g class="label" style="" transform="translate(-54.796875, -12)"><rect/><foreignObject width="109.59375" height="24"><div xmlns="http://www.w3.org/1999/xhtml" style="display: table-cell; white-space: nowrap; line-height: 1.5; max-width: 200px; text-align: center;"><span class="nodeLabel"><p>core ontology</p></span></div></foreignObject></g></g><g class="node default" id="flowchart-Dataset-1" transform="translate(323.1484375, 419)"><rect class="basic label-container" style="" x="-74.1796875" y="-27" width="148.359375" height="54"/><g class="label" style="" transform="translate(-44.1796875, -12)"><rect/><foreignObject width="88.359375" height="24"><div xmlns="http://www.w3.org/1999/xhtml" style="display: table-cell; white-space: nowrap; line-height: 1.5; max-width: 200px; text-align: center;"><span class="nodeLabel"><p>gb:Dataset</p></span></div></foreignObject></g></g><g class="node default" id="flowchart-Node-2" transform="translate(1892.421875, 435)"><rect class="basic label-container" style="" x="-63.734375" y="-27" width="127.46875" height="54"/><g class="label" style="" transform="translate(-33.734375, -12)"><rect/><foreignObject width="67.46875" height="24"><div xmlns="http://www.w3.org/1999/xhtml" style="display: table-cell; white-space: nowrap; line-height: 1.5; max-width: 200px; text-align: center;"><span class="nodeLabel"><p>gb:Node</p></span></div></foreignObject></g></g><g class="node default" id="flowchart-Group-3" transform="translate(2172.6484375, 217)"><rect class="basic label-container" style="" x="-67.2109375" y="-27" width="134.421875" height="54"/><g class="label" style="" transform="translate(-37.2109375, -12)"><rect/><foreignObject width="74.421875" height="24"><div xmlns="http://www.w3.org/1999/xhtml" style="display: table-cell; white-space: nowrap; line-height: 1.5; max-width: 200px; text-align: center;"><span class="nodeLabel"><p>gb:Group</p></span></div></foreignObject></g></g><g class="node default" id="flowchart-Tutorial-4" transform="translate(1157.4375, 529)"><rect class="basic label-container" style="" x="-72.265625" y="-27" width="144.53125" height="54"/><g class="label" style="" transform="translate(-42.265625, -12)"><rect/><foreignObject width="84.53125" height="24"><div xmlns="http://www.w3.org/1999/xhtml" style="display: table-cell; white-space: nowrap; line-height: 1.5; max-width: 200px; text-align: center;"><span class="nodeLabel"><p>gb:Tutorial</p></span></div></foreignObject></g></g><g class="node default" id="flowchart-TutorialStop-5" transform="translate(1571.6796875, 435)"><rect class="basic label-container" style="" x="-90.453125" y="-27" width="180.90625" height="54"/><g class="label" style="" transform="translate(-60.453125, -12)"><rect/><foreignObject width="120.90625" height="24"><div xmlns="http://www.w3.org/1999/xhtml" style="display: table-cell; white-space: nowrap; line-height: 1.5; max-width: 200px; text-align: center;"><span class="nodeLabel"><p>gb:TutorialStop</p></span></div></foreignObject></g></g><g class="node default" id="flowchart-View-6" transform="translate(718.640625, 587)"><rect class="basic label-container" style="" x="-61.8359375" y="-27" width="123.671875" height="54"/><g class="label" style="" transform="translate(-31.8359375, -12)"><rect/><foreignObject width="63.671875" height="24"><div xmlns="http://www.w3.org/1999/xhtml" style="display: table-cell; white-space: nowrap; line-height: 1.5; max-width: 200px; text-align: center;"><span class="nodeLabel"><p>gb:View</p></span></div></foreignObject></g></g><g class="node default" id="flowchart-EdgeReference-7" transform="translate(1571.6796875, 666)"><rect class="basic label-container" style="" x="-103.2734375" y="-27" width="206.546875" height="54"/><g class="label" style="" transform="translate(-73.2734375, -12)"><rect/><foreignObject width="146.546875" height="24"><div xmlns="http://www.w3.org/1999/xhtml" style="display: table-cell; white-space: nowrap; line-height: 1.5; max-width: 200px; text-align: center;"><span class="nodeLabel"><p>gb:EdgeReference</p></span></div></foreignObject></g></g><g class="node default" id="flowchart-QueryCatalog-8" transform="translate(718.640625, 241)"><rect class="basic label-container" style="" x="-97.890625" y="-27" width="195.78125" height="54"/><g class="label" style="" transform="translate(-67.890625, -12)"><rect/><foreignObject width="135.78125" height="24"><div xmlns="http://www.w3.org/1999/xhtml" style="display: table-cell; white-space: nowrap; line-height: 1.5; max-width: 200px; text-align: center;"><span class="nodeLabel"><p>gb:QueryCatalog</p></span></div></foreignObject></g></g><g class="node default" id="flowchart-NamedQuery-9" transform="translate(1157.4375, 210)"><rect class="basic label-container" style="" x="-95.84375" y="-27" width="191.6875" height="54"/><g class="label" style="" transform="translate(-65.84375, -12)"><rect/><foreignObject width="131.6875" height="24"><div xmlns="http://www.w3.org/1999/xhtml" style="display: table-cell; white-space: nowrap; line-height: 1.5; max-width: 200px; text-align: center;"><span class="nodeLabel"><p>gb:NamedQuery</p></span></div></foreignObject></g></g><g class="node default" id="flowchart-QueryParameter-10" transform="translate(1571.6796875, 174)"><rect class="basic label-container" style="" x="-108.7890625" y="-27" width="217.578125" height="54"/><g class="label" style="" transform="translate(-78.7890625, -12)"><rect/><foreignObject width="157.578125" height="24"><div xmlns="http://www.w3.org/1999/xhtml" style="display: table-cell; white-space: nowrap; line-height: 1.5; max-width: 200px; text-align: center;"><span class="nodeLabel"><p>gb:QueryParameter</p></span></div></foreignObject></g></g><g class="node default" id="flowchart-EdgeRelation-11" transform="translate(323.1484375, 35)"><rect class="basic label-container" style="" x="-95.5546875" y="-27" width="191.109375" height="54"/><g class="label" style="" transform="translate(-65.5546875, -12)"><rect/><foreignObject width="131.109375" height="24"><div xmlns="http://www.w3.org/1999/xhtml" style="display: table-cell; white-space: nowrap; line-height: 1.5; max-width: 200px; text-align: center;"><span class="nodeLabel"><p>gb:EdgeRelation</p></span></div></foreignObject></g></g></g></g></g></svg>